Coordinates
version=1
nRows=16
nColumns=36
inDegrees=yes

Units are S.I. units (second, meters, Newtons, ...)
If the header above contains a line with 'inDegrees', this indicates whether rotational values are in degrees (yes) or radians (no).

endheader
time	pelvis_tilt	pelvis_list	pelvis_rotation	pelvis_tx	pelvis_ty	pelvis_tz	hip_flexion_r	hip_adduction_r	hip_rotation_r	knee_angle_r	knee_angle_r_beta	ankle_angle_r	subtalar_angle_r	mtp_angle_r	hip_flexion_l	hip_adduction_l	hip_rotation_l	knee_angle_l	knee_angle_l_beta	ankle_angle_l	subtalar_angle_l	mtp_angle_l	lumbar_extension	lumbar_bending	lumbar_rotation	arm_flex_r	arm_add_r	arm_rot_r	elbow_flex_r	pro_sup_r	arm_flex_l	arm_add_l	arm_rot_l	elbow_flex_l	pro_sup_l
      1.81000000	      3.11240627	      3.25910046	     93.56854610	     -0.26324099	      0.96318366	     -0.93952891	      8.04057095	      5.17788319	     -9.97435682	     19.84783286	      0.34641003	      6.48558784	     -4.03404176	     -7.49999987	      7.32362226	     -6.22793582	     -0.84000540	     62.64118196	      1.09329487	    -14.18147391	    -24.51096729	     -7.49999987	    -14.51943398	      4.79301433	     -1.39936779	     -0.28472184	     -3.88187977	    -40.32042497	     31.61477154	    101.87371542	     11.47673418	     -3.07219759	    -28.79520023	     33.49290565	     86.06426893
      1.82000000	      2.75340404	      2.82701740	     93.62645265	     -0.26249117	      0.96477639	     -0.95213349	      7.25564392	      4.88640923	    -10.02492013	     19.11615339	      0.33363982	      6.74056363	     -3.18182643	     -7.49999987	      9.67905357	     -5.78937472	     -1.26984905	     62.95589171	      1.09878759	    -11.47062556	    -25.28017813	     -7.49999987	    -14.16905565	      4.30180140	     -1.15130979	     -0.06817913	     -3.88592919	    -39.93055863	     32.12071000	    101.84670740	     10.74904230	     -3.05010889	    -29.00353210	     32.89795516	     85.95230134
      1.83000000	      2.54460491	      2.15628356	     93.61709850	     -0.26163951	      0.96570361	     -0.96485191	      6.73917282	      4.71114768	    -10.34391495	     18.38001301	      0.32079174	      7.43548372	     -1.70607459	     -7.49999987	     12.24228063	     -5.60008967	     -1.93912100	     63.01078355	      1.09974564	     -9.01558670	    -25.10240268	     -7.49999987	    -13.47662150	      3.93869837	     -0.76991528	     -0.16547294	     -4.11828943	    -38.56924450	     32.75283611	    101.93445839	      9.99406933	     -2.93171205	    -29.51036920	     32.26070536	     85.76372553
      1.84000000	      2.13287609	      1.92142025	     93.51555764	     -0.26054690	      0.96730626	     -0.97731476	      5.69107026	      4.43788132	    -10.20919834	     17.47621286	      0.30501746	      7.38578182	     -1.21902123	     -7.49999987	     14.11420708	     -5.16698229	     -2.67562551	     62.42329318	      1.08949200	     -7.47445502	    -25.79334923	     -7.49999987	    -13.40875591	      3.33990578	     -0.55646787	      0.32472309	     -4.07227104	    -38.16770418	     33.16913626	    102.22739015	      9.26115348	     -3.08116403	    -29.75540902	     31.75823342	     85.82507724
      1.85000000	      1.78016014	      1.55473817	     93.21523361	     -0.25933122	      0.96832151	     -0.98994239	      4.82755198	      4.18984784	    -10.11893790	     16.66728476	      0.29089900	      7.58637157	     -0.46751196	     -7.49999987	     15.99556414	     -4.89537879	     -3.75736825	     61.52563464	      1.07382490	     -5.81010850	    -25.76189311	     -7.49999987	    -13.17414863	      2.80798147	     -0.13875297	      0.57619565	     -4.10984192	    -37.51894705	     33.81873778	    102.35063333	      8.34013491	     -3.10867862	    -30.13125235	     31.48885610	     85.75274562
      1.86000000	      1.64244404	      1.64760727	     92.91648343	     -0.25808027	      0.96951976	     -1.00268614	      3.41734691	      4.15813962	    -10.44290742	     15.73757314	      0.27467247	      8.01226896	      1.24588072	     -7.49999987	     17.24599963	     -5.00542109	     -4.96332401	     60.31201192	      1.05264319	     -3.69914875	    -24.47840559	     -7.49999987	    -13.46196113	      2.52367278	      0.29603287	      0.27822066	     -4.78361076	    -34.18435431	     35.23667356	    102.67281412	      7.69908593	     -2.78931807	    -31.80092230	     31.29255425	     85.58821293
      1.87000000	      1.38235406	      1.34156586	     92.59294894	     -0.25674602	      0.97008079	     -1.01529712	      2.51797335	      3.99657445	    -10.43989992	     14.95286894	      0.26097680	      8.10575740	      1.83651246	     -7.49999987	     18.80843644	     -4.87769945	     -6.14457255	     58.72258825	      1.02490251	     -3.00394572	    -24.47617718	     -7.49999987	    -13.30575318	      2.06316533	      0.69783746	      0.68369763	     -4.77087134	    -33.88558207	     35.81715951	    102.83370751	      6.78258951	     -2.89915283	    -32.11181917	     31.06088378	     85.64200589
      1.88000000	      1.18710427	      1.66007115	     92.11973690	     -0.25544242	      0.97111315	     -1.02823264	      0.95949907	      3.83700390	    -10.83071778	     14.26195504	      0.24891807	      8.54252008	      3.72697827	     -7.49999987	     19.42937785	     -4.92110699	     -7.57641974	     56.71829140	      0.98992093	     -1.99472894	    -23.24193645	     -7.49999987	    -13.87494157	      1.73300009	      1.22220830	      0.77338968	     -5.20084273	    -32.11163459	     36.97651904	    102.68257663	      6.03965473	     -2.72211350	    -33.38544415	     30.92260993	     85.72215482
      1.89000000	      0.96541772	      1.81957532	     91.52610913	     -0.25380676	      0.97169171	     -1.04135312	     -0.39976477	      3.63795660	    -11.05135141	     13.63673339	      0.23800590	      8.63604742	      5.01954330	     -7.49999987	     20.05483708	     -4.98938075	     -9.24514839	     54.35315862	      0.94864158	     -1.12069128	    -21.91306209	     -7.49999987	    -14.19581928	      1.29418407	      1.80653122	      1.11934306	     -5.39365719	    -31.27170440	     37.69812441	    102.70527418	      4.97096599	     -2.80683460	    -33.73510955	     31.00317431	     85.77479728
      1.90000000	      0.98642455	      1.80763361	     91.10219320	     -0.25242015	      0.97145667	     -1.05378461	     -1.44772591	      3.67527507	    -11.46768920	     13.15433559	      0.22958647	      8.94746468	      6.40106252	     -7.49999987	     20.95080090	     -5.23490533	    -10.66104590	     51.95775221	      0.90683385	     -0.11381531	    -20.39021989	     -7.49999987	    -14.43062882	      1.16550671	      2.26951826	      1.47654712	     -5.61859783	    -30.37215204	     38.64886860	    102.56611860	      4.08882067	     -2.81188177	    -34.29308375	     30.96154592	     85.75463732
      1.91000000	      0.92013256	      2.04826090	     90.59824166	     -0.25120245	      0.97137788	     -1.06666530	     -2.81635584	      3.59385767	    -11.81517623	     12.65743072	      0.22091384	      9.26769271	      7.77867371	     -7.49999987	     21.35352560	     -5.27801205	    -12.10904564	     49.08611874	      0.85671439	      0.51071458	    -18.95543114	     -7.49999987	    -14.88282195	      0.96921958	      2.73900592	      1.86136972	     -5.91599401	    -29.42531824	     39.50705369	    102.54086112	      3.23948423	     -2.74672627	    -35.21217479	     30.78336019	     85.81791065
      1.92000000	      0.98887899	      2.28233919	     90.10575225	     -0.24995564	      0.97085870	     -1.07948182	     -4.12128537	      3.61640910	    -12.39795564	     12.27116502	      0.21417223	      9.63418134	      9.40416524	     -7.49999987	     21.74182928	     -5.50223643	    -13.72545325	     46.13208925	      0.80515685	      0.72604004	    -17.61694705	     -7.49999987	    -15.33341970	      0.89678840	      3.20536688	      2.23653316	     -6.25081448	    -28.37023736	     40.42083939	    102.41358934	      2.41314560	     -2.65368212	    -36.14352428	     30.63315367	     85.89894369
      1.93000000	      1.31552207	      2.35380558	     89.62235351	     -0.24849465	      0.96966962	     -1.09212376	     -5.13566627	      3.88267884	    -13.10322668	     12.12381722	      0.21160053	      9.92987421	     11.14730585	     -7.49999987	     22.36180876	     -5.92349422	    -15.04923389	     43.20362822	      0.75404556	      1.18705285	    -15.62021787	     -7.49999987	    -15.60176698	      1.08956464	      3.71129539	      2.63220054	     -6.62491080	    -27.27390787	     41.25726772	    101.90598619	      1.52114144	     -2.58711831	    -36.91442208	     30.51593111	     85.85998256
      1.94000000	      1.30085690	      2.64256731	     89.02777942	     -0.24782262	      0.96857304	     -1.10517402	     -6.41995142	      3.77582300	    -13.10658198	     11.94529496	      0.20848473	     10.47376113	     11.82628071	     -7.49999987	     22.44150495	     -5.77288553	    -16.37613974	     39.75964335	      0.69393669	      1.13780685	    -14.02807952	     -7.49999987	    -16.07797751	      0.98697361	      4.22705738	      3.06507939	     -7.03586480	    -26.34245472	     42.10196709	    101.65665326	      0.68826031	     -2.45153731	    -37.78244482	     30.24420430	     85.88240137
      1.95000000	      1.93420999	      2.44879074	     88.83508563	     -0.24681066	      0.96617142	     -1.11774463	     -7.17506640	      4.47345011	    -13.48117497	     11.76294308	      0.20530209	     10.64913232	     12.35033118	     -7.49999987	     23.40023596	     -6.29045334	    -17.14935228	     36.71203933	      0.64074596	      0.47684258	    -12.83562653	     -7.49999987	    -15.98484279	      1.56898091	      4.51434468	      3.61937071	     -7.22216805	    -26.14041004	     42.70433264	    101.88400596	     -0.22722779	     -2.42935229	    -38.10226367	     29.91154902	     86.01226204
      1.96000000	      1.73423433	      2.95531602	     88.08389987	     -0.24630431	      0.96483732	     -1.13108169	     -8.52198981	      3.99815404	    -13.57943279	     12.05421731	      0.21038578	     11.68515490	     13.59064833	     -7.49999987	     23.00326137	     -5.94964490	    -18.99490973	     32.93454170	      0.57481619	      0.58005521	     -9.09695314	     -7.49999987	    -16.66045865	      1.24274157	      5.11292611	      3.73414900	     -8.02533225	    -24.02354753	     43.90317172	     99.43228411	     -0.88349375	     -2.00267462	    -39.94097030	     29.63322316	     85.07800468
